<svg width="27" height="21" viewBox="0 0 27 21" fill="none" xmlns="http://www.w3.org/2000/svg">
<path d="M4.30439 11.9724L4.38958 13.022L5.43334 12.8827L25.0344 10.2681C25.3435 10.2269 25.5909 10.3329 25.7262 10.4661C25.8433 10.5814 25.8965 10.7266 25.8351 10.9306C25.4793 12.1122 24.7559 13.5795 23.2839 14.7872C21.821 15.9875 19.5363 16.9993 15.935 17.1415H7.76987C7.26705 17.1415 6.84243 16.7682 6.77809 16.2695L6.40069 13.3446L4.41163 13.399L4.20381 16.2151C4.16527 16.7374 3.73026 17.1415 3.20652 17.1415H1.82163L1.51721 14.0972C1.49509 13.876 1.44845 13.658 1.37814 13.4471L1.13463 12.7165C1.10064 12.6145 1.08331 12.5078 1.08331 12.4003V10.9748C1.08331 10.4226 1.53103 9.97484 2.08331 9.97484H3.22013C3.74111 9.97484 4.17471 10.3747 4.21685 10.8938L4.30439 11.9724ZM1.82876 17.2128L1.82875 17.2127L1.82876 17.2128Z" stroke="#4A4A4A" stroke-width="2"/>
<ellipse cx="9.25" cy="6.05818" rx="1.25" ry="1.25" fill="#4A4A4A"/>
<path d="M7.2682 9.1143C7.21054 8.60474 7.54767 8.13415 8.04869 8.02483L9.54765 7.69779C10.3198 7.52931 10.9731 8.28097 10.6986 9.02212L9.72324 11.6555C9.57794 12.0478 9.20382 12.3082 8.78549 12.3082H8.52286C8.01409 12.3082 7.58642 11.9262 7.52921 11.4206L7.2682 9.1143Z" fill="#4A4A4A"/>
</svg>
