<svg width="24" height="25" viewBox="0 0 24 25" fill="none" xmlns="http://www.w3.org/2000/svg">
<path d="M18.4 11.8415L14.3 12.0415L16.6 9.44151C16.8 9.14151 16.9 8.64151 16.8 8.14151C16.7 7.84151 16.6 7.54151 16.3 7.34151L10.9 4.14151C10.5 3.84151 9.9 3.94151 9.5 4.24151L6.8 6.74151C6.3 7.24151 6.2 7.94151 6.7 8.44151C7.1 8.94151 7.9 8.94151 8.4 8.54151L10.4 6.74151L12.3 7.84151L8.1 12.1415C8 12.2415 8 12.3415 7.9 12.3415C7.4 12.5415 6.9 12.7415 6.5 13.0415L8 14.5415C8.5 14.3415 9 14.1415 9.5 14.1415C11.4 14.1415 13 15.7415 13 17.6415C13 18.2415 12.9 18.7415 12.6 19.1415L14.1 20.6415C14.7 19.7415 15 18.7415 15 17.6415C15 16.4415 14.6 15.2415 13.9 14.3415L17.2 14.0415L17 18.8415C16.9 19.5415 17.4 20.0415 18.1 20.1415H18.2C18.8 20.1415 19.3 19.6415 19.4 19.0415L19.6 13.1415C19.6 12.8415 19.5 12.4415 19.3 12.2415C19 11.9415 18.7 11.8415 18.4 11.8415ZM18 6.14151C18.5304 6.14151 19.0391 5.9308 19.4142 5.55572C19.7893 5.18065 20 4.67194 20 4.14151C20 3.61108 19.7893 3.10237 19.4142 2.7273C19.0391 2.35222 18.5304 2.14151 18 2.14151C17.4696 2.14151 16.9609 2.35222 16.5858 2.7273C16.2107 3.10237 16 3.61108 16 4.14151C16 4.67194 16.2107 5.18065 16.5858 5.55572C16.9609 5.9308 17.4696 6.14151 18 6.14151ZM12.5 22.2415C11.6 22.8415 10.6 23.1415 9.5 23.1415C6.5 23.1415 4 20.6415 4 17.6415C4 16.5415 4.3 15.5415 4.9 14.6415L6.4 16.1415C6.2 16.6415 6 17.1415 6 17.6415C6 19.5415 7.6 21.1415 9.5 21.1415C10.1 21.1415 10.6 21.0415 11 20.7415L12.5 22.2415Z" fill="#4A4A4A"/>
</svg>
