<?xml version="1.0" ?><!DOCTYPE svg  PUBLIC '-//W3C//DTD SVG 1.1//EN'  'http://www.w3.org/Graphics/SVG/1.1/DTD/svg11.dtd'><svg enable-background="new 0 0 65 65" height="65px" id="Layer_1" version="1.1" viewBox="0 0 65 65" width="65px" xml:space="preserve" xmlns="http://www.w3.org/2000/svg" xmlns:xlink="http://www.w3.org/1999/xlink"><circle cx="55.765" cy="12.384" r="1.081"/><circle cx="9.237" cy="45.593" r="1.081"/><path d="M63.129,8.764c-0.721-2.032-2.548-4.493-7.126-4.782c-0.005-0.001-0.01,0-0.015-0.001c-0.051-0.003-0.097-0.01-0.147-0.012  c-0.026-0.001-0.052,0.003-0.078,0.003c-0.025,0-0.049-0.004-0.074-0.003c-0.047,0.002-0.089,0.008-0.135,0.011  c-0.009,0.001-0.018,0.001-0.026,0.002c-4.58,0.288-6.407,2.751-7.128,4.783c-1.837,5.172,1.643,13.401,5.268,17.542  c-2.943,1.982-11.965,3.514-18.767,4.667c-12.511,2.12-19.039,3.398-19.039,7.091s5.97,4.893,16.522,6.693  c4.954,0.846,13.209,2.255,14,3.689c-1.175,1.717-11.853,3.463-18.27,4.511c-5.948,0.973-10.687,1.783-14.124,2.719  c2.395-4.297,3.979-9.851,2.612-13.704c-0.73-2.057-2.587-4.558-7.289-4.797c-0.026-0.001-0.051,0.004-0.077,0.004  c-0.025,0-0.05-0.005-0.075-0.004c-4.703,0.239-6.56,2.741-7.29,4.798c-2.02,5.693,2.398,15.106,6.363,18.675  c0.01,0.009,0.023,0.012,0.034,0.021c0.025,0.021,0.046,0.047,0.074,0.067c0.002,0.002,0.006,0.002,0.008,0.004  c0.105,0.078,0.219,0.138,0.338,0.185c0.018,0.007,0.035,0.012,0.053,0.019c0.028,0.01,0.056,0.017,0.084,0.024  c0.134,0.038,0.27,0.064,0.409,0.065c0,0,0.001,0,0.002,0c0,0,0,0,0,0h0h0c0,0,0.001,0,0.001,0c0.108,0,0.215-0.014,0.321-0.037  c0.034-0.008,0.066-0.021,0.1-0.032c0.019-0.005,0.038-0.011,0.057-0.018c0.024-0.008,0.048-0.014,0.071-0.022  c0.027-0.011,0.054-0.021,0.08-0.033c0.041-0.02,0.078-0.045,0.118-0.067c0.056-0.032,0.11-0.064,0.162-0.104  c0.024-0.019,0.049-0.037,0.072-0.059c0.006-0.005,0.014-0.006,0.02-0.012c0.192-0.173,0.385-0.37,0.578-0.569  c2.228-1.617,11.145-3.076,17.779-4.16c13.29-2.172,20.809-3.588,20.809-7.427c0-3.692-5.969-4.891-16.518-6.691  c-4.955-0.846-13.212-2.255-14.004-3.691c1.095-1.565,10.356-3.135,16.518-4.179c11.832-2.004,19.25-3.471,21.472-6.593  C60.81,23.699,65.133,14.406,63.129,8.764z M9.237,49.674c-2.251,0-4.082-1.831-4.082-4.082c0-2.25,1.831-4.08,4.082-4.08  c2.25,0,4.08,1.83,4.08,4.08C13.317,47.843,11.487,49.674,9.237,49.674z M55.765,16.465c-2.251,0-4.082-1.831-4.082-4.081  s1.831-4.081,4.082-4.081c2.25,0,4.08,1.831,4.08,4.081S58.015,16.465,55.765,16.465z"/></svg>