<svg width="14" height="23" viewBox="0 0 14 23" fill="none" xmlns="http://www.w3.org/2000/svg">
<path d="M2.3532 7.85351L5.53816 5.52551C5.8957 5.26221 6.33057 5.12702 6.77339 5.14151C7.3135 5.15506 7.83599 5.33762 8.26823 5.66379C8.70047 5.98997 9.02099 6.44356 9.18521 6.96151C9.37005 7.54451 9.53899 7.93851 9.69203 8.14351C10.1544 8.76431 10.7543 9.26811 11.4439 9.61494C12.1336 9.96176 12.8941 10.1421 13.665 10.1415V12.1415C12.6388 12.1426 11.6251 11.9148 10.6968 11.4744C9.76856 11.034 8.94889 10.3919 8.2968 9.59451L7.60416 13.5495L9.65228 15.2795L11.8614 21.3875L9.99313 22.0715L7.96589 16.4675L4.59708 13.6225C4.32062 13.3979 4.10906 13.1027 3.98445 12.7679C3.85983 12.433 3.82671 12.0706 3.88854 11.7185L4.39435 8.83351L3.72159 9.32551L1.60788 12.2535L0 11.0775L2.3363 7.84151L2.3532 7.85351ZM8.19942 4.64151C7.6723 4.64151 7.16677 4.43079 6.79404 4.05572C6.42132 3.68065 6.21192 3.17194 6.21192 2.64151C6.21192 2.11108 6.42132 1.60237 6.79404 1.2273C7.16677 0.852224 7.6723 0.64151 8.19942 0.64151C8.72653 0.64151 9.23206 0.852224 9.60479 1.2273C9.97752 1.60237 10.1869 2.11108 10.1869 2.64151C10.1869 3.17194 9.97752 3.68065 9.60479 4.05572C9.23206 4.43079 8.72653 4.64151 8.19942 4.64151ZM5.246 17.8225L2.05209 21.6525L0.529668 20.3675L3.48706 16.8215L4.2284 14.6415L6.0082 16.1415L5.246 17.8225Z" fill="#4A4A4A"/>
</svg>
