<?xml version="1.0" encoding="UTF-8" standalone="no"?>
<svg
   xmlns:dc="http://purl.org/dc/elements/1.1/"
   xmlns:cc="http://creativecommons.org/ns#"
   xmlns:rdf="http://www.w3.org/1999/02/22-rdf-syntax-ns#"
   xmlns:svg="http://www.w3.org/2000/svg"
   xmlns="http://www.w3.org/2000/svg"
   xmlns:sodipodi="http://sodipodi.sourceforge.net/DTD/sodipodi-0.dtd"
   xmlns:inkscape="http://www.inkscape.org/namespaces/inkscape"
   width="800"
   height="600"
   id="svg2"
   version="1.1"
   inkscape:version="0.91 r13725"
   sodipodi:docname="tide.svg">
  <metadata
     id="metadata21">
    <rdf:RDF>
      <cc:Work
         rdf:about="">
        <dc:format>image/svg+xml</dc:format>
        <dc:type
           rdf:resource="http://purl.org/dc/dcmitype/StillImage" />
      </cc:Work>
    </rdf:RDF>
  </metadata>
  <defs
     id="defs19" />
  <sodipodi:namedview
     pagecolor="#ffffff"
     bordercolor="#666666"
     borderopacity="1"
     objecttolerance="10"
     gridtolerance="10"
     guidetolerance="10"
     inkscape:pageopacity="0"
     inkscape:pageshadow="2"
     inkscape:window-width="847"
     inkscape:window-height="480"
     id="namedview17"
     showgrid="false"
     inkscape:zoom="0.39333333"
     inkscape:cx="447.87484"
     inkscape:cy="300"
     inkscape:window-x="0"
     inkscape:window-y="0"
     inkscape:window-maximized="0"
     inkscape:current-layer="svg2" />
  <!-- Created with Method Draw - http://github.com/duopixel/Method-Draw/ -->
  <g
     id="g4">
    <title
       id="title6">background</title>
    <rect
       fill="#fff"
       id="canvas_background"
       height="602"
       width="802"
       y="-1"
       x="-1" />
    <g
       display="none"
       overflow="visible"
       y="0"
       x="0"
       height="100%"
       width="100%"
       id="canvasGrid">
      <rect
         fill="url(#gridpattern)"
         stroke-width="0"
         y="0"
         x="0"
         height="100%"
         width="100%"
         id="rect10" />
    </g>
  </g>
  <g
     id="g12"
     transform="matrix(4.6431238,0,0,5.2000336,-1509.3917,-1036.0958)">
    <title
       id="title14">Layer 1</title>
    <path
       id="svg_4"
       d="m 486.18341,264.63406 a 3.125,3.125 0 0 1 -2.90625,3.34375 11.28125,11.28125 0 0 0 -6.96875,4.53125 14.40625,14.40625 0 0 1 -10.4375,5.875 15.28125,15.28125 0 0 1 -10.84375,-6.25 c -2.53125,-2.625 -4.1875,-4.21875 -6.25,-4.21875 -2.0625,0 -3.8125,1.59375 -6.25,4.21875 a 15.28125,15.28125 0 0 1 -10.84375,6.25 14.09375,14.09375 0 0 1 -10.3125,-5.96875 c -2.5625,-2.75 -4.25,-4.4375 -6.875,-4.4375 -2.625,0 -4.53125,2.1875 -6.75,4.53125 a 14.40625,14.40625 0 0 1 -10.4375,5.875 15.3125,15.3125 0 0 1 -10.84375,-6.25 c -2.53125,-2.625 -4.1875,-4.21875 -6.25,-4.21875 -2.0625,0 -3.8125,1.59375 -6.25,4.21875 a 15.3125,15.3125 0 0 1 -10.84375,6.25 14.09375,14.09375 0 0 1 -10.3125,-5.96875 c -2.5625,-2.75 -4.25,-4.4375 -6.875,-4.4375 a 3.125,3.125 0 1 1 0,-6.25 15.625,15.625 0 0 1 11.4375,6.4375 c 2.28125,2.46875 3.78125,3.96875 5.71875,3.96875 1.9375,0 3.8125,-1.59375 6.25,-4.25 a 15.3125,15.3125 0 0 1 10.84375,-6.25 15.3125,15.3125 0 0 1 10.84375,6.25 c 2.53125,2.625 4.1875,4.25 6.25,4.25 2.0625,0 3.59375,-1.5 5.90625,-3.9375 a 16.84375,16.84375 0 0 1 11.0625,-6.46875 15.625,15.625 0 0 1 11.65625,6.4375 c 2.28125,2.46875 3.78125,3.96875 5.71875,3.96875 1.9375,0 3.8125,-1.59375 6.25,-4.25 a 15.3125,15.3125 0 0 1 10.84375,-6.25 15.3125,15.3125 0 0 1 10.84375,6.25 c 2.53125,2.625 4.1875,4.25 6.25,4.25 2.0625,0 3.59375,-1.5 5.90625,-3.9375 a 16.84375,16.84375 0 0 1 11.0625,-6.46875 3.125,3.125 0 0 1 3.40625,2.90625 z m -140.625,-24.25 c 2.625,0 4.3125,1.6875 6.875,4.4375 a 14.09375,14.09375 0 0 0 10.3125,5.96875 15.3125,15.3125 0 0 0 10.84375,-6.25 c 2.53125,-2.625 4.1875,-4.21875 6.25,-4.21875 2.0625,0 3.8125,1.59375 6.25,4.21875 a 15.3125,15.3125 0 0 0 10.84375,6.25 14.40625,14.40625 0 0 0 10.4375,-5.875 c 2.21875,-2.34375 4.15625,-4.34375 6.75,-4.53125 2.59375,-0.1875 4.3125,1.6875 6.875,4.4375 a 14.09375,14.09375 0 0 0 10.3125,5.96875 15.28125,15.28125 0 0 0 10.84375,-6.25 c 2.53125,-2.625 4.1875,-4.21875 6.25,-4.21875 2.0625,0 3.8125,1.59375 6.25,4.21875 a 15.28125,15.28125 0 0 0 10.84375,6.25 14.40625,14.40625 0 0 0 10.4375,-5.875 11.34375,11.34375 0 0 1 7.3125,-4.53125 3.1326469,3.1326469 0 1 0 -0.4375,-6.25 16.84375,16.84375 0 0 0 -11.03125,6.46875 c -2.34375,2.4375 -3.875,3.9375 -5.90625,3.9375 -2.03125,0 -3.8125,-1.59375 -6.25,-4.25 a 15.3125,15.3125 0 0 0 -10.9375,-6.15625 15.3125,15.3125 0 0 0 -10.84375,6.25 c -2.53125,2.625 -4.1875,4.25 -6.25,4.25 -2.0625,0 -3.4375,-1.5 -5.71875,-3.96875 a 15.625,15.625 0 0 0 -11.75,-6.53125 l 0,0 a 16.84375,16.84375 0 0 0 -11.03125,6.46875 c -2.34375,2.4375 -3.875,3.9375 -5.90625,3.9375 -2.03125,0 -3.8125,-1.59375 -6.25,-4.25 a 15.3125,15.3125 0 0 0 -11,-6.15625 15.3125,15.3125 0 0 0 -10.84375,6.25 c -2.53125,2.625 -4.1875,4.25 -6.25,4.25 -2.0625,0 -3.4375,-1.5 -5.71875,-3.96875 a 15.625,15.625 0 0 0 -11.5625,-6.53125 3.125,3.125 0 1 0 0,6.25 z m 137.25,48.90625 a 16.84375,16.84375 0 0 0 -11.0625,6.46875 c -2.34375,2.4375 -3.875,3.9375 -5.90625,3.9375 -2.03125,0 -3.8125,-1.59375 -6.25,-4.25 a 15.3125,15.3125 0 0 0 -10.84375,-6.25 15.3125,15.3125 0 0 0 -10.84375,6.25 c -2.53125,2.625 -4.1875,4.25 -6.25,4.25 -2.0625,0 -3.4375,-1.5 -5.71875,-3.96875 a 15.625,15.625 0 0 0 -11.65625,-6.4375 l 0,0 a 16.84375,16.84375 0 0 0 -11.0625,6.46875 c -2.34375,2.4375 -3.875,3.9375 -5.90625,3.9375 -2.03125,0 -3.8125,-1.59375 -6.25,-4.25 a 15.3125,15.3125 0 0 0 -10.84375,-6.25 15.3125,15.3125 0 0 0 -10.84375,6.25 c -2.53125,2.625 -4.1875,4.25 -6.25,4.25 -2.0625,0 -3.4375,-1.5 -5.71875,-3.96875 a 15.625,15.625 0 0 0 -11.84375,-6.46875 3.125,3.125 0 1 0 0,6.25 c 2.625,0 4.3125,1.6875 6.875,4.4375 a 14.09375,14.09375 0 0 0 10.34375,6.0625 15.3125,15.3125 0 0 0 10.90625,-6.25 c 2.53125,-2.625 4.1875,-4.21875 6.25,-4.21875 2.0625,0 3.8125,1.59375 6.25,4.21875 a 15.3125,15.3125 0 0 0 10.84375,6.25 14.40625,14.40625 0 0 0 10.4375,-5.875 c 2.21875,-2.34375 4.15625,-4.34375 6.75,-4.53125 2.59375,-0.1875 4.3125,1.6875 6.875,4.4375 a 14.09375,14.09375 0 0 0 10.40625,5.96875 15.28125,15.28125 0 0 0 10.9375,-6.25 c 2.53125,-2.625 4.1875,-4.21875 6.25,-4.21875 2.0625,0 3.8125,1.59375 6.25,4.21875 a 15.28125,15.28125 0 0 0 10.84375,6.25 14.40625,14.40625 0 0 0 10.4375,-5.875 11.28125,11.28125 0 0 1 6.96875,-4.53125 3.1326469,3.1326469 0 0 0 -0.4375,-6.25 l 0.0625,-0.0625 z m -76.4375,-86.40625 4.8125,-4.875 0,15.84375 a 3.125,3.125 0 1 0 6.25,0 l 0,-15.84375 4.8125,4.875 a 3.1932011,3.1932011 0 0 0 4.5625,-4.46875 l -10.15625,-10.125 a 3.125,3.125 0 0 0 -4.4375,0 l -10.40625,10.125 a 3.1932011,3.1932011 0 0 0 4.5625,4.46875 z"
       inkscape:connector-curvature="0" />
  </g>
</svg>
